<svg width="108" height="44" viewBox="0 0 108 44" fill="none" xmlns="http://www.w3.org/2000/svg">
<g filter="url(#filter0_ddd_3_420)">
<rect x="3" y="2" width="102" height="38" rx="6" fill="#24AFB5"/>
<path d="M16.076 26V15.0909H20.2521C21.0405 15.0909 21.6957 15.2152 22.2177 15.4638C22.7433 15.7088 23.1357 16.0444 23.3949 16.4705C23.6577 16.8967 23.7891 17.3796 23.7891 17.9194C23.7891 18.3633 23.7038 18.7433 23.5334 19.0593C23.3629 19.3718 23.1339 19.6257 22.8462 19.821C22.5586 20.0163 22.2372 20.1566 21.8821 20.2418V20.3484C22.2692 20.3697 22.6403 20.4886 22.9954 20.7053C23.354 20.9183 23.647 21.2202 23.8743 21.6108C24.1016 22.0014 24.2152 22.4737 24.2152 23.0277C24.2152 23.5923 24.0785 24.1001 23.805 24.5511C23.5316 24.9986 23.1197 25.3519 22.5692 25.6112C22.0188 25.8704 21.3263 26 20.4918 26H16.076ZM18.0522 24.3487H20.1776C20.8949 24.3487 21.4116 24.212 21.7276 23.9386C22.0472 23.6616 22.207 23.3065 22.207 22.8732C22.207 22.5501 22.1271 22.2589 21.9673 21.9996C21.8075 21.7369 21.5803 21.5309 21.2855 21.3817C20.9908 21.229 20.6392 21.1527 20.2308 21.1527H18.0522V24.3487ZM18.0522 19.7305H20.0071C20.348 19.7305 20.6552 19.6683 20.9286 19.544C21.2021 19.4162 21.4169 19.2369 21.5732 19.006C21.733 18.7717 21.8129 18.4947 21.8129 18.1751C21.8129 17.7525 21.6637 17.4045 21.3654 17.131C21.0707 16.8576 20.6321 16.7209 20.0497 16.7209H18.0522V19.7305ZM30.964 22.5589V17.8182H32.8923V26H31.0226V24.5458H30.9374C30.7527 25.0039 30.4491 25.3786 30.0265 25.6697C29.6075 25.9609 29.0908 26.1065 28.4764 26.1065C27.9402 26.1065 27.4661 25.9876 27.0542 25.7496C26.6458 25.5082 26.3262 25.1584 26.0954 24.7003C25.8646 24.2386 25.7492 23.6811 25.7492 23.0277V17.8182H27.6774V22.7294C27.6774 23.2479 27.8195 23.6598 28.1036 23.9652C28.3877 24.2706 28.7605 24.4233 29.2222 24.4233C29.5063 24.4233 29.7815 24.354 30.0478 24.2156C30.3142 24.0771 30.5325 23.8711 30.703 23.5977C30.877 23.3207 30.964 22.9744 30.964 22.5589ZM38.8607 17.8182V19.3097H34.1572V17.8182H38.8607ZM35.3185 15.858H37.2467V23.5391C37.2467 23.7983 37.2858 23.9972 37.3639 24.1357C37.4456 24.2706 37.5521 24.3629 37.6835 24.4126C37.8149 24.4624 37.9605 24.4872 38.1203 24.4872C38.2411 24.4872 38.3511 24.4783 38.4506 24.4606C38.5536 24.4428 38.6317 24.4268 38.6849 24.4126L39.0099 25.9201C38.9069 25.9556 38.7595 25.9947 38.5678 26.0373C38.3795 26.0799 38.1487 26.1048 37.8753 26.1119C37.3923 26.1261 36.9573 26.0533 36.5702 25.8935C36.1832 25.7301 35.876 25.478 35.6487 25.1371C35.425 24.7962 35.3149 24.37 35.3185 23.8587V15.858ZM44.459 17.8182V19.3097H39.7555V17.8182H44.459ZM40.9167 15.858H42.845V23.5391C42.845 23.7983 42.884 23.9972 42.9622 24.1357C43.0438 24.2706 43.1504 24.3629 43.2818 24.4126C43.4132 24.4624 43.5588 24.4872 43.7186 24.4872C43.8393 24.4872 43.9494 24.4783 44.0488 24.4606C44.1518 24.4428 44.2299 24.4268 44.2832 24.4126L44.6081 25.9201C44.5051 25.9556 44.3578 25.9947 44.166 26.0373C43.9778 26.0799 43.747 26.1048 43.4735 26.1119C42.9906 26.1261 42.5556 26.0533 42.1685 25.8935C41.7814 25.7301 41.4742 25.478 41.247 25.1371C41.0232 24.7962 40.9132 24.37 40.9167 23.8587V15.858ZM49.4526 26.1598C48.6536 26.1598 47.9612 25.984 47.3752 25.6325C46.7893 25.2809 46.3347 24.7891 46.0116 24.157C45.692 23.5249 45.5322 22.7862 45.5322 21.9411C45.5322 21.0959 45.692 20.3555 46.0116 19.7198C46.3347 19.0842 46.7893 18.5906 47.3752 18.239C47.9612 17.8874 48.6536 17.7116 49.4526 17.7116C50.2516 17.7116 50.9441 17.8874 51.53 18.239C52.116 18.5906 52.5688 19.0842 52.8884 19.7198C53.2115 20.3555 53.3731 21.0959 53.3731 21.9411C53.3731 22.7862 53.2115 23.5249 52.8884 24.157C52.5688 24.7891 52.116 25.2809 51.53 25.6325C50.9441 25.984 50.2516 26.1598 49.4526 26.1598ZM49.4633 24.6151C49.8965 24.6151 50.2587 24.4961 50.5499 24.2582C50.8411 24.0167 51.0577 23.6935 51.1998 23.2887C51.3454 22.8839 51.4182 22.4329 51.4182 21.9357C51.4182 21.435 51.3454 20.9822 51.1998 20.5774C51.0577 20.169 50.8411 19.8441 50.5499 19.6026C50.2587 19.3612 49.8965 19.2404 49.4633 19.2404C49.0194 19.2404 48.6501 19.3612 48.3553 19.6026C48.0641 19.8441 47.8457 20.169 47.7001 20.5774C47.5581 20.9822 47.4871 21.435 47.4871 21.9357C47.4871 22.4329 47.5581 22.8839 47.7001 23.2887C47.8457 23.6935 48.0641 24.0167 48.3553 24.2582C48.6501 24.4961 49.0194 24.6151 49.4633 24.6151ZM56.838 21.206V26H54.9097V17.8182H56.7528V19.2085H56.8486C57.0368 18.7504 57.3369 18.3864 57.7488 18.1165C58.1643 17.8466 58.6775 17.7116 59.2883 17.7116C59.8529 17.7116 60.3447 17.8324 60.7638 18.0739C61.1863 18.3153 61.5131 18.6651 61.7439 19.1232C61.9782 19.5813 62.0937 20.1371 62.0901 20.7905V26H60.1618V21.0888C60.1618 20.5419 60.0198 20.114 59.7357 19.805C59.4552 19.4961 59.0663 19.3416 58.5692 19.3416C58.2318 19.3416 57.9317 19.4162 57.6689 19.5653C57.4097 19.7109 57.2055 19.9222 57.0564 20.1992C56.9108 20.4762 56.838 20.8118 56.838 21.206Z" fill="white"/>
<path fill-rule="evenodd" clip-rule="evenodd" d="M87 13.5C89.4853 13.5 91.5 15.5147 91.5 18V24C91.5 26.4853 89.4853 28.5 87 28.5H81C78.5147 28.5 76.5 26.4853 76.5 24V18C76.5 15.5147 78.5147 13.5 81 13.5L87 13.5ZM86.25 15.75H81.75C80.1434 15.75 78.8317 17.013 78.7537 18.6003L78.75 18.75V23.25C78.75 24.8566 80.013 26.1683 81.6003 26.2463L81.75 26.25H86.25C87.8566 26.25 89.1683 24.987 89.2463 23.3997L89.25 23.25V18.75C89.25 17.1434 87.987 15.8317 86.3997 15.7537L86.25 15.75Z" fill="white"/>
</g>
<defs>
<filter id="filter0_ddd_3_420" x="0" y="0" width="108" height="44" filterUnits="userSpaceOnUse" color-interpolation-filters="sRGB">
<feFlood flood-opacity="0" result="BackgroundImageFix"/>
<feColorMatrix in="SourceAlpha" type="matrix" values="0 0 0 0 0 0 0 0 0 0 0 0 0 0 0 0 0 0 127 0" result="hardAlpha"/>
<feOffset dy="1"/>
<feGaussianBlur stdDeviation="0.5"/>
<feColorMatrix type="matrix" values="0 0 0 0 0 0 0 0 0 0 0 0 0 0 0 0 0 0 0.04 0"/>
<feBlend mode="normal" in2="BackgroundImageFix" result="effect1_dropShadow_3_420"/>
<feColorMatrix in="SourceAlpha" type="matrix" values="0 0 0 0 0 0 0 0 0 0 0 0 0 0 0 0 0 0 127 0" result="hardAlpha"/>
<feOffset dy="2"/>
<feGaussianBlur stdDeviation="0.5"/>
<feColorMatrix type="matrix" values="0 0 0 0 0 0 0 0 0 0 0 0 0 0 0 0 0 0 0.03 0"/>
<feBlend mode="normal" in2="effect1_dropShadow_3_420" result="effect2_dropShadow_3_420"/>
<feColorMatrix in="SourceAlpha" type="matrix" values="0 0 0 0 0 0 0 0 0 0 0 0 0 0 0 0 0 0 127 0" result="hardAlpha"/>
<feOffset dy="1"/>
<feGaussianBlur stdDeviation="1.5"/>
<feColorMatrix type="matrix" values="0 0 0 0 0 0 0 0 0 0 0 0 0 0 0 0 0 0 0.05 0"/>
<feBlend mode="normal" in2="effect2_dropShadow_3_420" result="effect3_dropShadow_3_420"/>
<feBlend mode="normal" in="SourceGraphic" in2="effect3_dropShadow_3_420" result="shape"/>
</filter>
</defs>
</svg>
