<svg width="135" height="54" viewBox="0 0 135 54" fill="none" xmlns="http://www.w3.org/2000/svg">
<g filter="url(#filter0_ddd_3_447)">
<path d="M3 8C3 4.68629 5.68629 2 9 2H126C129.314 2 132 4.68629 132 8V44C132 47.3137 129.314 50 126 50H9C5.68629 50 3 47.3137 3 44V8Z" fill="#24AFB5"/>
<path d="M28.7039 22.4531C28.6377 21.8329 28.3583 21.3499 27.8659 21.0043C27.3782 20.6586 26.7437 20.4858 25.9625 20.4858C25.4132 20.4858 24.9421 20.5687 24.5491 20.7344C24.1561 20.9001 23.8555 21.125 23.6471 21.4091C23.4388 21.6932 23.3323 22.0175 23.3275 22.3821C23.3275 22.6851 23.3962 22.9479 23.5335 23.1705C23.6755 23.393 23.8673 23.5824 24.1088 23.7386C24.3502 23.8902 24.6178 24.018 24.9113 24.1222C25.2049 24.2263 25.5008 24.3139 25.7991 24.3849L27.1627 24.7259C27.712 24.8537 28.2399 25.0265 28.7466 25.2443C29.2579 25.4621 29.7148 25.7367 30.1173 26.0682C30.5245 26.3996 30.8465 26.7997 31.0832 27.2685C31.3199 27.7372 31.4383 28.2865 31.4383 28.9162C31.4383 29.7685 31.2205 30.5189 30.7849 31.1676C30.3493 31.8116 29.7196 32.3158 28.8957 32.6804C28.0766 33.0402 27.0846 33.2202 25.9199 33.2202C24.7882 33.2202 23.8057 33.045 22.9724 32.6946C22.1438 32.3442 21.4951 31.8329 21.0264 31.1605C20.5624 30.4882 20.3114 29.669 20.2735 28.7031H22.8659C22.9038 29.2098 23.06 29.6312 23.3346 29.9673C23.6092 30.3035 23.9667 30.5545 24.4071 30.7202C24.8521 30.8859 25.3493 30.9688 25.8985 30.9688C26.4715 30.9688 26.9734 30.8835 27.4042 30.7131C27.8398 30.5379 28.1807 30.2964 28.427 29.9886C28.6732 29.6761 28.7986 29.3116 28.8034 28.8949C28.7986 28.5161 28.6874 28.2036 28.4696 27.9574C28.2518 27.7064 27.9464 27.4981 27.5534 27.3324C27.1651 27.1619 26.7106 27.0104 26.1897 26.8778L24.5349 26.4517C23.337 26.1439 22.39 25.6776 21.694 25.0526C21.0027 24.4228 20.6571 23.5871 20.6571 22.5455C20.6571 21.6884 20.8891 20.938 21.3531 20.294C21.8218 19.6501 22.4587 19.1506 23.2636 18.7955C24.0685 18.4356 24.98 18.2557 25.998 18.2557C27.0302 18.2557 27.9345 18.4356 28.711 18.7955C29.4923 19.1506 30.1055 19.6454 30.5505 20.2798C30.9956 20.9096 31.2252 21.634 31.2395 22.4531H28.7039ZM40.4269 28.4119V22.0909H42.9979V33H40.505V31.0611H40.3914C40.1452 31.6719 39.7403 32.1714 39.1769 32.5597C38.6182 32.9479 37.9292 33.142 37.1101 33.142C36.3952 33.142 35.7631 32.9834 35.2138 32.6662C34.6693 32.3442 34.2432 31.8778 33.9354 31.267C33.6276 30.6515 33.4738 29.9081 33.4738 29.0369V22.0909H36.0448V28.6392C36.0448 29.3305 36.2342 29.8797 36.613 30.2869C36.9917 30.6941 37.4889 30.8977 38.1044 30.8977C38.4832 30.8977 38.8502 30.8054 39.2053 30.6207C39.5604 30.4361 39.8516 30.1615 40.0789 29.7969C40.3109 29.4276 40.4269 28.9659 40.4269 28.4119ZM45.5554 33V18.4545H48.1264V23.8949H48.2329C48.3655 23.6297 48.5525 23.348 48.794 23.0497C49.0355 22.7467 49.3622 22.4886 49.7741 22.2756C50.186 22.0578 50.7116 21.9489 51.3508 21.9489C52.1936 21.9489 52.9536 22.1643 53.6306 22.5952C54.3125 23.0213 54.8522 23.6534 55.25 24.4915C55.6524 25.3248 55.8537 26.3475 55.8537 27.5597C55.8537 28.7576 55.6572 29.7756 55.2642 30.6136C54.8712 31.4517 54.3361 32.0909 53.6591 32.5312C52.982 32.9716 52.2149 33.1918 51.3579 33.1918C50.7329 33.1918 50.2145 33.0876 49.8025 32.8793C49.3906 32.6709 49.0591 32.42 48.8082 32.1264C48.562 31.8281 48.3702 31.5464 48.2329 31.2812H48.0838V33H45.5554ZM48.0767 27.5455C48.0767 28.2509 48.1761 28.8688 48.375 29.3991C48.5786 29.9295 48.8698 30.3437 49.2485 30.642C49.6321 30.9356 50.0961 31.0824 50.6406 31.0824C51.2088 31.0824 51.6846 30.9309 52.0681 30.6278C52.4517 30.3201 52.7405 29.901 52.9346 29.3707C53.1335 28.8357 53.2329 28.2273 53.2329 27.5455C53.2329 26.8684 53.1359 26.267 52.9417 25.7415C52.7476 25.2159 52.4588 24.804 52.0752 24.5057C51.6917 24.2074 51.2135 24.0582 50.6406 24.0582C50.0913 24.0582 49.625 24.2027 49.2414 24.4915C48.8579 24.7803 48.5667 25.1851 48.3679 25.706C48.1737 26.2268 48.0767 26.84 48.0767 27.5455ZM66.4615 24.9744L64.1178 25.2301C64.0515 24.9934 63.9355 24.7708 63.7698 24.5625C63.6088 24.3542 63.391 24.1861 63.1164 24.0582C62.8418 23.9304 62.5056 23.8665 62.1078 23.8665C61.5728 23.8665 61.123 23.9825 60.7584 24.2145C60.3986 24.4465 60.221 24.7472 60.2257 25.1165C60.221 25.4337 60.337 25.6918 60.5738 25.8906C60.8152 26.0895 61.213 26.2528 61.7669 26.3807L63.6277 26.7784C64.6599 27.0009 65.427 27.3537 65.9289 27.8366C66.4355 28.3196 66.6912 28.9517 66.6959 29.733C66.6912 30.4195 66.49 31.0256 66.0922 31.5511C65.6992 32.072 65.1524 32.4792 64.4516 32.7727C63.7508 33.0663 62.9459 33.2131 62.0368 33.2131C60.7016 33.2131 59.6268 32.9337 58.8124 32.375C57.998 31.8116 57.5127 31.0279 57.3564 30.0241L59.8635 29.7827C59.9772 30.2751 60.2186 30.6468 60.588 30.8977C60.9573 31.1487 61.4379 31.2741 62.0297 31.2741C62.6405 31.2741 63.1306 31.1487 63.4999 30.8977C63.8739 30.6468 64.061 30.3366 64.061 29.9673C64.061 29.6548 63.9402 29.3968 63.6988 29.1932C63.462 28.9896 63.0927 28.8333 62.5908 28.7244L60.73 28.3338C59.6836 28.116 58.9095 27.7491 58.4076 27.233C57.9057 26.7121 57.6571 26.054 57.6618 25.2585C57.6571 24.5862 57.8394 24.0038 58.2087 23.5114C58.5828 23.0142 59.1012 22.6307 59.7641 22.3608C60.4317 22.0862 61.2011 21.9489 62.0723 21.9489C63.3507 21.9489 64.3569 22.2211 65.0908 22.7656C65.8294 23.3101 66.2864 24.0464 66.4615 24.9744ZM73.3745 33.2131C72.2855 33.2131 71.3503 32.974 70.5691 32.4957C69.7926 32.0175 69.1936 31.357 68.7722 30.5142C68.3555 29.6667 68.1472 28.6913 68.1472 27.5881C68.1472 26.4801 68.3603 25.5024 68.7864 24.6548C69.2125 23.8026 69.8139 23.1397 70.5904 22.6662C71.3716 22.188 72.2949 21.9489 73.3603 21.9489C74.2457 21.9489 75.0293 22.1122 75.7111 22.4389C76.3977 22.7609 76.9445 23.2178 77.3517 23.8097C77.7589 24.3968 77.9909 25.0833 78.0478 25.8693H75.5904C75.4909 25.3437 75.2542 24.9058 74.8801 24.5554C74.5108 24.2003 74.016 24.0227 73.3958 24.0227C72.8702 24.0227 72.4086 24.1648 72.0108 24.4489C71.6131 24.7282 71.303 25.1307 71.0804 25.6562C70.8626 26.1818 70.7537 26.8116 70.7537 27.5455C70.7537 28.2888 70.8626 28.928 71.0804 29.4631C71.2982 29.9934 71.6036 30.4029 71.9966 30.6918C72.3944 30.9759 72.8607 31.1179 73.3958 31.1179C73.7746 31.1179 74.1131 31.0469 74.4114 30.9048C74.7144 30.758 74.9677 30.5473 75.1713 30.2727C75.3749 29.9981 75.5146 29.6643 75.5904 29.2713H78.0478C77.9862 30.0431 77.7589 30.7273 77.3659 31.3239C76.973 31.9157 76.4379 32.3797 75.7608 32.7159C75.0837 33.0473 74.2883 33.2131 73.3745 33.2131ZM79.9589 33V22.0909H82.4518V23.9091H82.5654C82.7643 23.2794 83.1052 22.794 83.5882 22.4531C84.0759 22.1075 84.6322 21.9347 85.2572 21.9347C85.3993 21.9347 85.5579 21.9418 85.7331 21.956C85.913 21.9654 86.0621 21.982 86.1805 22.0057V24.3707C86.0716 24.3329 85.8988 24.2997 85.662 24.2713C85.43 24.2382 85.2051 24.2216 84.9873 24.2216C84.5186 24.2216 84.0972 24.3234 83.7231 24.527C83.3538 24.7259 83.0626 25.0028 82.8495 25.358C82.6365 25.7131 82.5299 26.1226 82.5299 26.5866V33H79.9589ZM87.6886 33V22.0909H90.2596V33H87.6886ZM88.9812 20.5426C88.574 20.5426 88.2236 20.4077 87.9301 20.1378C87.6365 19.8632 87.4897 19.5341 87.4897 19.1506C87.4897 18.7623 87.6365 18.4332 87.9301 18.1634C88.2236 17.8887 88.574 17.7514 88.9812 17.7514C89.3932 17.7514 89.7435 17.8887 90.0324 18.1634C90.3259 18.4332 90.4727 18.7623 90.4727 19.1506C90.4727 19.5341 90.3259 19.8632 90.0324 20.1378C89.7435 20.4077 89.3932 20.5426 88.9812 20.5426ZM92.8171 33V18.4545H95.3881V23.8949H95.4946C95.6272 23.6297 95.8142 23.348 96.0557 23.0497C96.2972 22.7467 96.6239 22.4886 97.0358 22.2756C97.4478 22.0578 97.9733 21.9489 98.6125 21.9489C99.4553 21.9489 100.215 22.1643 100.892 22.5952C101.574 23.0213 102.114 23.6534 102.512 24.4915C102.914 25.3248 103.115 26.3475 103.115 27.5597C103.115 28.7576 102.919 29.7756 102.526 30.6136C102.133 31.4517 101.598 32.0909 100.921 32.5312C100.244 32.9716 99.4766 33.1918 98.6196 33.1918C97.9946 33.1918 97.4762 33.0876 97.0642 32.8793C96.6523 32.6709 96.3209 32.42 96.0699 32.1264C95.8237 31.8281 95.6319 31.5464 95.4946 31.2812H95.3455V33H92.8171ZM95.3384 27.5455C95.3384 28.2509 95.4378 28.8688 95.6367 29.3991C95.8403 29.9295 96.1315 30.3437 96.5103 30.642C96.8938 30.9356 97.3578 31.0824 97.9023 31.0824C98.4705 31.0824 98.9463 30.9309 99.3299 30.6278C99.7134 30.3201 100.002 29.901 100.196 29.3707C100.395 28.8357 100.495 28.2273 100.495 27.5455C100.495 26.8684 100.398 26.267 100.203 25.7415C100.009 25.2159 99.7205 24.804 99.337 24.5057C98.9534 24.2074 98.4752 24.0582 97.9023 24.0582C97.3531 24.0582 96.8867 24.2027 96.5032 24.4915C96.1196 24.7803 95.8284 25.1851 95.6296 25.706C95.4354 26.2268 95.3384 26.84 95.3384 27.5455ZM109.931 33.2131C108.837 33.2131 107.892 32.9858 107.097 32.5312C106.306 32.072 105.698 31.4233 105.272 30.5852C104.845 29.7424 104.632 28.7505 104.632 27.6094C104.632 26.4872 104.845 25.5024 105.272 24.6548C105.702 23.8026 106.304 23.1397 107.076 22.6662C107.847 22.188 108.754 21.9489 109.796 21.9489C110.468 21.9489 111.103 22.0578 111.699 22.2756C112.3 22.4886 112.831 22.8201 113.29 23.2699C113.754 23.7197 114.119 24.2926 114.384 24.9886C114.649 25.6799 114.781 26.5038 114.781 27.4602V28.2486H105.84V26.5156H112.317C112.312 26.0232 112.206 25.5852 111.997 25.2017C111.789 24.8134 111.498 24.508 111.124 24.2855C110.755 24.063 110.324 23.9517 109.831 23.9517C109.306 23.9517 108.844 24.0795 108.446 24.3352C108.049 24.5862 107.738 24.9176 107.516 25.3295C107.298 25.7367 107.187 26.1842 107.182 26.6719V28.1847C107.182 28.8191 107.298 29.3636 107.53 29.8182C107.762 30.268 108.086 30.6136 108.503 30.8551C108.92 31.0919 109.407 31.2102 109.966 31.2102C110.34 31.2102 110.679 31.1581 110.982 31.054C111.285 30.9451 111.548 30.7865 111.77 30.5781C111.993 30.3698 112.161 30.1117 112.274 29.804L114.675 30.0739C114.523 30.7083 114.235 31.2623 113.808 31.7358C113.387 32.2045 112.847 32.5691 112.189 32.8295C111.531 33.0852 110.778 33.2131 109.931 33.2131Z" fill="white"/>
</g>
<defs>
<filter id="filter0_ddd_3_447" x="0" y="0" width="135" height="54" filterUnits="userSpaceOnUse" color-interpolation-filters="sRGB">
<feFlood flood-opacity="0" result="BackgroundImageFix"/>
<feColorMatrix in="SourceAlpha" type="matrix" values="0 0 0 0 0 0 0 0 0 0 0 0 0 0 0 0 0 0 127 0" result="hardAlpha"/>
<feOffset dy="1"/>
<feGaussianBlur stdDeviation="0.5"/>
<feColorMatrix type="matrix" values="0 0 0 0 0 0 0 0 0 0 0 0 0 0 0 0 0 0 0.04 0"/>
<feBlend mode="normal" in2="BackgroundImageFix" result="effect1_dropShadow_3_447"/>
<feColorMatrix in="SourceAlpha" type="matrix" values="0 0 0 0 0 0 0 0 0 0 0 0 0 0 0 0 0 0 127 0" result="hardAlpha"/>
<feOffset dy="2"/>
<feGaussianBlur stdDeviation="0.5"/>
<feColorMatrix type="matrix" values="0 0 0 0 0 0 0 0 0 0 0 0 0 0 0 0 0 0 0.03 0"/>
<feBlend mode="normal" in2="effect1_dropShadow_3_447" result="effect2_dropShadow_3_447"/>
<feColorMatrix in="SourceAlpha" type="matrix" values="0 0 0 0 0 0 0 0 0 0 0 0 0 0 0 0 0 0 127 0" result="hardAlpha"/>
<feOffset dy="1"/>
<feGaussianBlur stdDeviation="1.5"/>
<feColorMatrix type="matrix" values="0 0 0 0 0 0 0 0 0 0 0 0 0 0 0 0 0 0 0.05 0"/>
<feBlend mode="normal" in2="effect2_dropShadow_3_447" result="effect3_dropShadow_3_447"/>
<feBlend mode="normal" in="SourceGraphic" in2="effect3_dropShadow_3_447" result="shape"/>
</filter>
</defs>
</svg>
